<svg xmlns="http://www.w3.org/2000/svg" viewBox="0 0 100 100" width="100" height="100"><path fill="#68cf3c" d="M99,87v5h1V87Zm0,10v2H97v1h3V97Zm0-40v5h1V57Zm0,10v5h1V67Zm0,10v5h1V77Zm0-50v5h1V27Zm0,10v5h1V37Zm0,10v5h1V47ZM99,7v5h1V7Zm0,10v5h1V17ZM99,0V2h1V0ZM92,99H87v1h5ZM82,99H77v1h5ZM72,99H67v1h5ZM62,99H57v1h5ZM52,99H47v1h5ZM42,99H37v1h5ZM32,99H27v1h5ZM22,99H17v1h5ZM12,99H7v1h5ZM2,99H0v1H2ZM76,84h1v4H76v1h3V88H78V82H77v1H76Zm7-1H81V82h2Zm0,5V83h1v5Zm-2,0h2v1H81Zm0,0V83H80v5Zm5-5h2v5H86Zm0,0H85v5h1v1h2V88h1V83H88V82H86Z"/></svg>
