<svg xmlns="http://www.w3.org/2000/svg" width="100%" height="149">
    <defs>
        <path id="left" d="M.38,105c-1.43,4.25,1.33,7.64,6.17,7.64H44V0h-.22c-4.46,0-9.06,2.94-10.29,6.6Z"/>
        <path id="right" d="M71,6.61C71.41,3,68.16,0,63.7,0H0V112.65H.48c1.41,0,5.88.14,6.46.14,13.86,0,12.91,7.86,13.27,10.59C19.71,134,10.7,144,6.2,149c7.5-5,18.61-14.18,23-22.5s4.14-13.85,9.47-13.88c3.84,0,10.42,0,10.42,0,4.84,0,9.19-3.45,9.71-7.7Z"/>
        <linearGradient id="gradient" x1="0" x2="0" y1="0" y2="1">
            <stop offset="20%" stop-color="#000" stop-opacity="0"/>
            <stop offset="100%" stop-color="#000" stop-opacity="0.25"/>
        </linearGradient>
        <clipPath id="shadow">
            <use
                href="#left"
                x="0" y="0"
            />
            <rect
                x="44" y="0"
                width="100%" height="112.65"
                style="width: calc(100% - 44px - 71px)"
            />
            <use
                href="#right"
                x="100%" y="0"
                transform="translate(-71 0)"
            />
        </clipPath>
    </defs>
    <rect
        x="0" y="0"
        width="100%" height="100%"
        fill="url(#gradient)"
        clip-path="url(#shadow)"
    />
</svg>
