<svg xmlns="http://www.w3.org/2000/svg" viewBox="0 0 192 192"><circle fill="#34a853" cx="144.07" cy="144" r="16"/><circle fill="#4285f4" cx="96.07" cy="104" r="24"/><path fill="#ea4335" d="M24,135.2c0,18.11,14.69,32.8,32.8,32.8H96v-16l-40.1-0.1c-8.8,0-15.9-8.19-15.9-17.9v-18H24V135.2z"/><path fill="#fbbc05" d="M168,72.8c0-18.11-14.69-32.8-32.8-32.8H116l20,16c8.8,0,16,8.29,16,18v30h16V72.8z"/><path fill="#4285f4" d="M112,24l-32,0L68,40H56.8C38.69,40,24,54.69,24,72.8V92h16V74c0-9.71,7.2-18,16-18h80L112,24z"/></svg>
