<svg xmlns="http://www.w3.org/2000/svg" fill="none" viewBox="0 0 22 22" stroke-width="1.75" stroke="currentColor" width="24" height="24">
	<path d="M 12.705346,15.777547 C 14.4635,17.5315 14.7526,17.8509 14.9928,18.1812 c 0.2139,0.2943 0.3371,0.5275 0.3889,0.6822 C 14.0859,19.5872 12.5926,20 11,20 6.02944,20 2,15.9706 2,11 2,9.4151 2.40883,7.9285 3.12619,6.63699 3.304,6.69748 3.56745,6.84213 3.89275,7.08309 4.3705644,7.4380098 4.7486794,7.8160923 6.4999995,9.5689376 8.2513197,11.321783 10.947192,14.023595 12.705346,15.777547 Z"></path><path d="M8 1.62961C9.04899 1.22255 10.1847 1 11.3704 1C16.6887 1 21 5.47715 21 11C21 12.0452 20.8456 13.053 20.5592 14" stroke-linecap="round"/>
	<path d="M9 5.38745C9.64553 5.13695 10.3444 5 11.0741 5C14.3469 5 17 7.75517 17 11.1538C17 11.797 16.905 12.4172 16.7287 13" stroke-linecap="round"/>
	<path d="M12 12C12 12.7403 11.5978 13.3866 11 13.7324L8.26756 11C8.61337 10.4022 9.25972 10 10 10C11.1046 10 12 10.8954 12 12Z" fill="currentColor" stroke="none"/>
</svg>
