<svg xmlns="http://www.w3.org/2000/svg" fill="none" viewBox="0 0 64 64"><defs/><path fill="#B93EDF" d="M32 64a32 32 0 100-64 32 32 0 000 64z"/><path fill="#fff" d="M36.64 38.79c-.96-1.02-2.65-1.67-4.64-1.67-1.99 0-3.68.65-4.64 1.67-.5.52-.76 1.07-.85 1.84-.16 1.5-.07 2.78.1 4.84.18 1.96.5 4.58.9 7.24.3 1.9.54 2.92.76 3.65.35 1.2 1.67 2.23 3.73 2.23 2.07 0 3.38-1.04 3.74-2.23.22-.73.45-1.75.75-3.65.41-2.66.73-5.28.9-7.24.17-2.06.26-3.35.1-4.84a2.94 2.94 0 00-.85-1.84zm-9.87-9.03a5.24 5.24 0 1010.48 0 5.24 5.24 0 00-10.48 0zM31.94 9.1A22.56 22.56 0 009.5 31.31a22.54 22.54 0 0015.06 21.53.3.3 0 00.4-.33l-.33-2.3a.77.77 0 00-.45-.62 19.65 19.65 0 01-11.8-18.18 19.68 19.68 0 0119.47-19.44A19.65 19.65 0 0151.63 31.6c0 8.04-4.86 14.96-11.8 18a.77.77 0 00-.45.6c-.1.76-.2 1.54-.32 2.3a.3.3 0 00.4.34A22.54 22.54 0 0054.5 31.6 22.53 22.53 0 0031.94 9.1zm-.4 10.33a12.21 12.21 0 018.82 21.08c-.2.18-.3.45-.3.73.05.84.04 1.65-.02 2.57a.3.3 0 00.46.26 15.07 15.07 0 10-16.97 0 .3.3 0 00.47-.26c-.06-.92-.08-1.73-.03-2.57a.93.93 0 00-.3-.73 12.17 12.17 0 01-3.84-9.22 12.23 12.23 0 0111.7-11.86z"/></svg>