<svg xmlns="http://www.w3.org/2000/svg" fill="none" viewBox="0 0 65 63"><defs/><path fill="#24292E" d="M32.89 0A32.05 32.05 0 005.08 16.44 32.17 32.17 0 0022.86 62.6c1.59.3 2.1-.7 2.1-1.54v-6c-8.82 1.94-10.67-3.77-10.67-3.77-1.44-3.71-3.52-4.7-3.52-4.7-2.88-2 .22-2 .22-2A6.58 6.58 0 0115.84 48c2.84 4.9 7.42 3.49 9.24 2.67a6.81 6.81 0 012-4.3c-7-.82-14.46-3.57-14.46-15.87-.03-3.2 1.17-6.3 3.35-8.65-.99-2.79-.89-5.85.29-8.56 0 0 2.67-.86 8.73 3.32a29.68 29.68 0 0115.87 0c6.06-4.15 8.71-3.32 8.71-3.32a11.7 11.7 0 01.31 8.51 12.52 12.52 0 013.3 8.61c0 12.34-7.41 15.05-14.47 15.85A7.67 7.67 0 0140.4 49a7.8 7.8 0 01.53 3.21v8.86c0 .85.5 1.86 2.11 1.54a32.1 32.1 0 0021.52-35.64A32.14 32.14 0 0032.9 0z"/></svg>