<svg xmlns="http://www.w3.org/2000/svg" fill="none" viewBox="0 0 65 64"><defs/><path fill="#fff" d="M32.99 64a32 32 0 100-64 32 32 0 000 64z"/><path fill="#E01E5A" d="M22.55 36.75A3.78 3.78 0 1118.77 33h3.78v3.75zm1.9 0a3.78 3.78 0 117.57 0v9.47a3.78 3.78 0 01-7.56 0v-9.47z"/><path fill="#36C5F0" d="M28.24 21.56a3.78 3.78 0 113.75-3.78v3.78h-3.75zm0 1.91a3.78 3.78 0 010 7.56h-9.47a3.78 3.78 0 110-7.56h9.47z"/><path fill="#2EB67D" d="M43.43 27.25A3.78 3.78 0 1147.2 31h-3.78v-3.75zm-1.91 0a3.78 3.78 0 01-7.56 0v-9.47a3.78 3.78 0 117.56 0v9.47z"/><path fill="#ECB22E" d="M37.74 42.44a3.78 3.78 0 11-3.75 3.78v-3.78h3.75zm0-1.91a3.78 3.78 0 010-7.56h9.47a3.78 3.78 0 110 7.56h-9.47z"/></svg>