<svg xmlns="http://www.w3.org/2000/svg" fill="none" viewBox="0 0 64 64"><defs/><path fill="#64D77E" fill-rule="evenodd" d="M32 64a32 32 0 100-64 32 32 0 000 64zM13.81 24.03c10.11-3.1 27.58-2.51 38.16 3.84 1.46.88 3.35.4 4.21-1.08a3.12 3.12 0 00-1.07-4.26c-12.19-7.31-31.48-8-43.08-4.44a3.11 3.11 0 00-2.05 3.87 3.07 3.07 0 003.83 2.07zM47.85 39a2.5 2.5 0 003.47-.85c.73-1.21.36-2.8-.83-3.55-10-6.3-24.63-8.06-36.39-4.4a2.6 2.6 0 00-1.68 3.21 2.52 2.52 0 003.15 1.73c10.3-3.2 23.57-1.62 32.28 3.86zm-2.96 8.71a2.1 2.1 0 002.8-.65c.6-.93.3-2.14-.67-2.71-8.65-5.09-19.38-6.27-31.89-3.52-1.1.24-1.8 1.3-1.54 2.35a2.05 2.05 0 002.45 1.49c11.43-2.52 21.13-1.5 28.85 3.04z" clip-rule="evenodd"/></svg>