<svg xmlns="http://www.w3.org/2000/svg">
    <symbol id="apple" viewBox="0 0 64 64"><defs/><path fill="#b93edf" d="M32 64a32 32 0 100-64 32 32 0 000 64z"/><path fill="#fff" d="M36.64 38.79c-.96-1.02-2.65-1.67-4.64-1.67-1.99 0-3.68.65-4.64 1.67-.5.52-.76 1.07-.85 1.84-.16 1.5-.07 2.78.1 4.84.18 1.96.5 4.58.9 7.24.3 1.9.54 2.92.76 3.65.35 1.2 1.67 2.23 3.73 2.23 2.07 0 3.38-1.04 3.74-2.23.22-.73.45-1.75.75-3.65.41-2.66.73-5.28.9-7.24.17-2.06.26-3.35.1-4.84a2.94 2.94 0 00-.85-1.84zm-9.87-9.03a5.24 5.24 0 1010.48 0 5.24 5.24 0 00-10.48 0zM31.94 9.1A22.56 22.56 0 009.5 31.31a22.54 22.54 0 0015.06 21.53.3.3 0 00.4-.33l-.33-2.3a.77.77 0 00-.45-.62 19.65 19.65 0 01-11.8-18.18 19.68 19.68 0 0119.47-19.44A19.65 19.65 0 0151.63 31.6c0 8.04-4.86 14.96-11.8 18a.77.77 0 00-.45.6c-.1.76-.2 1.54-.32 2.3a.3.3 0 00.4.34A22.54 22.54 0 0054.5 31.6 22.53 22.53 0 0031.94 9.1zm-.4 10.33a12.21 12.21 0 018.82 21.08c-.2.18-.3.45-.3.73.05.84.04 1.65-.02 2.57a.3.3 0 00.46.26 15.07 15.07 0 10-16.97 0 .3.3 0 00.47-.26c-.06-.92-.08-1.73-.03-2.57a.93.93 0 00-.3-.73 12.17 12.17 0 01-3.84-9.22 12.23 12.23 0 0111.7-11.86z"/></symbol>
    <symbol id="facebook" viewBox="0 0 64 64"><path fill="#46629d" d="M32.1 0c-7.99 0-15.7 2.98-21.6 8.34A31.96 31.96 0 006.43 51.2a32.13 32.13 0 0019.65 12.22V40.81h-7.63v-8.62h7.63v-6.58c0-7.48 4.45-11.61 11.29-11.61 2.25.03 4.49.22 6.7.58v7.34H40.3c-3.71 0-4.88 2.31-4.88 4.66v5.61h8.31l-1.32 8.62h-7.03v23a32.15 32.15 0 0020.96-11.06A31.93 31.93 0 0054.1 8.88 32.18 32.18 0 0032.1 0z"/></symbol>
    <symbol id="github" viewBox="0 0 65 63"><path fill="#24292e" d="M32.89 0A32.05 32.05 0 005.08 16.44 32.17 32.17 0 0022.86 62.6c1.59.3 2.1-.7 2.1-1.54v-6c-8.82 1.94-10.67-3.77-10.67-3.77-1.44-3.71-3.52-4.7-3.52-4.7-2.88-2 .22-2 .22-2A6.58 6.58 0 0115.84 48c2.84 4.9 7.42 3.49 9.24 2.67a6.81 6.81 0 012-4.3c-7-.82-14.46-3.57-14.46-15.87-.03-3.2 1.17-6.3 3.35-8.65-.99-2.79-.89-5.85.29-8.56 0 0 2.67-.86 8.73 3.32a29.68 29.68 0 0115.87 0c6.06-4.15 8.71-3.32 8.71-3.32a11.7 11.7 0 01.31 8.51 12.52 12.52 0 013.3 8.61c0 12.34-7.41 15.05-14.47 15.85A7.67 7.67 0 0140.4 49a7.8 7.8 0 01.53 3.21v8.86c0 .85.5 1.86 2.11 1.54a32.1 32.1 0 0021.52-35.64A32.14 32.14 0 0032.9 0z"/></symbol>
    <symbol id="google" viewBox="0 0 64 64"><defs/><path fill="#fff" d="M32 64a32 32 0 100-64 32 32 0 000 64z"/><rect width="5.45" height="8.43" x="48.36" y="27.78" fill="#4285F4" rx="2.72"/><rect width="5.45" height="8.43" x="38.94" y="18.86" fill="#34A853" rx="2.72"/><rect width="5.45" height="15.13" x="38.94" y="30.01" fill="#34A853" rx="2.72"/><rect width="5.45" height="8.43" x="29.27" y="10.18" fill="#FAB908" rx="2.72"/><rect width="5.45" height="8.43" x="29.27" y="45.39" fill="#FAB908" rx="2.72"/><rect width="5.45" height="21.32" x="29.27" y="21.34" fill="#FAB908" rx="2.72"/><rect width="5.45" height="8.43" x="19.6" y="36.72" fill="#EA4335" rx="2.72"/><rect width="5.45" height="15.13" x="19.6" y="18.86" fill="#EA4335" rx="2.72"/><rect width="5.45" height="8.43" x="10.18" y="27.78" fill="#0066D9" rx="2.72"/></symbol>
    <symbol id="slack" viewBox="0 0 65 64"><path fill="#ffffff" d="M32.99 64a32 32 0 100-64 32 32 0 000 64z"/><path fill="#E01E5A" d="M22.55 36.75A3.78 3.78 0 1118.77 33h3.78v3.75zm1.9 0a3.78 3.78 0 117.57 0v9.47a3.78 3.78 0 01-7.56 0v-9.47z"/><path fill="#36C5F0" d="M28.24 21.56a3.78 3.78 0 113.75-3.78v3.78h-3.75zm0 1.91a3.78 3.78 0 010 7.56h-9.47a3.78 3.78 0 110-7.56h9.47z"/><path fill="#2EB67D" d="M43.43 27.25A3.78 3.78 0 1147.2 31h-3.78v-3.75zm-1.91 0a3.78 3.78 0 01-7.56 0v-9.47a3.78 3.78 0 117.56 0v9.47z"/><path fill="#ECB22E" d="M37.74 42.44a3.78 3.78 0 11-3.75 3.78v-3.78h3.75zm0-1.91a3.78 3.78 0 010-7.56h9.47a3.78 3.78 0 110 7.56h-9.47z"/></symbol>
    <symbol id="spotify" viewBox="0 0 64 64"><defs/><path fill="#64d77e" fill-rule="evenodd" d="M32 64a32 32 0 100-64 32 32 0 000 64zM13.81 24.03c10.11-3.1 27.58-2.51 38.16 3.84 1.46.88 3.35.4 4.21-1.08a3.12 3.12 0 00-1.07-4.26c-12.19-7.31-31.48-8-43.08-4.44a3.11 3.11 0 00-2.05 3.87 3.07 3.07 0 003.83 2.07zM47.85 39a2.5 2.5 0 003.47-.85c.73-1.21.36-2.8-.83-3.55-10-6.3-24.63-8.06-36.39-4.4a2.6 2.6 0 00-1.68 3.21 2.52 2.52 0 003.15 1.73c10.3-3.2 23.57-1.62 32.28 3.86zm-2.96 8.71a2.1 2.1 0 002.8-.65c.6-.93.3-2.14-.67-2.71-8.65-5.09-19.38-6.27-31.89-3.52-1.1.24-1.8 1.3-1.54 2.35a2.05 2.05 0 002.45 1.49c11.43-2.52 21.13-1.5 28.85 3.04z" clip-rule="evenodd"/></symbol>
    <symbol id="telegram" viewBox="0 0 64 64"><path fill="#38aeea" d="M42.63 22.82a.5.5 0 00-.13-.12l-.16-.05a.49.49 0 00-.17 0 .55.55 0 00-.15.08L23.56 34.57l2.6 8.6.6-5.49 15.79-14.26a.28.28 0 00.11-.13c.03-.05.05-.1.06-.16v-.16a.53.53 0 00-.09-.15z"/><path fill="#38AEEA" d="M32 0a32 32 0 100 64 32 32 0 000-64zm17.32 18.77c-1.22 5.76-4.49 21.8-5.85 28.14-.06.3-.2.57-.39.8a1.71 1.71 0 01-1.6.61c-.3-.04-.6-.15-.84-.33A885.9 885.9 0 0132 41.67l-4.8 4.54c-.16.16-.37.27-.59.32a1.3 1.3 0 01-1.26-.33 1.43 1.43 0 01-.35-.56c-1.21-3.46-3.42-10.26-3.42-10.26S16.7 33.85 13 32.75a1.3 1.3 0 01-.92-1.19c0-.26.07-.53.22-.75.15-.22.37-.4.62-.49 8.2-3.05 28.24-10.54 34.75-12.95a1.23 1.23 0 011.24.22 1.23 1.23 0 01.38 1.18h.03z"/></symbol>
    <symbol id="twitter" viewBox="0 0 64 64"><defs/><path fill="#1da1f2" d="M32 0a32 32 0 100 64 32 32 0 000-64zm15.8 25.46v1c0 10-7.62 21.56-21.56 21.56-4.11 0-8.14-1.18-11.6-3.41a15.21 15.21 0 0011.21-3.14 7.57 7.57 0 01-7.08-5.26c1.13.22 2.3.18 3.42-.13a7.58 7.58 0 01-6.08-7.43v-.09c1.05.59 2.23.9 3.44.94a7.58 7.58 0 01-2.35-10.11 21.52 21.52 0 0015.61 7.92 7.58 7.58 0 0112.91-6.91c1.7-.34 3.33-.96 4.82-1.84a7.63 7.63 0 01-3.34 4.19c1.5-.18 2.97-.58 4.36-1.19a15.48 15.48 0 01-3.76 3.9z"/></symbol>
    <symbol id="vk" viewBox="0 0 64 64"><path fill="#4a76a8" d="M32 0a32 32 0 100 64 32 32 0 000-64zm20.22 47.1h-4.8c-1.82 0-2.38-1.5-5.64-4.76-2.84-2.75-4.1-3.12-4.8-3.12-1 0-1.26.24-1.26 1.63v4.34c0 1.16-.37 1.86-3.45 1.86-5.08 0-10.71-3.08-14.67-8.81-6-8.38-7.6-14.72-7.6-16 0-.7.23-1.35 1.63-1.35h4.84c1.21 0 1.68.51 2.14 1.86 2.38 6.85 6.34 12.86 8 12.86.61 0 .89-.28.89-1.82v-7.06c-.19-3.26-1.91-3.54-1.91-4.71a1.15 1.15 0 011.21-1.12h7.54c1 0 1.4.57 1.4 1.78v9.55c0 1 .43 1.4.75 1.4.61 0 1.12-.38 2.24-1.49a40.72 40.72 0 005.91-9.83A2.13 2.13 0 0146.71 21h4.8c1.44 0 1.76.75 1.44 1.78-.6 2.79-6.48 11.09-6.42 11.09-.51.84-.7 1.21 0 2.14.52.7 2.2 2.14 3.31 3.45 2 2.33 3.64 4.29 4.06 5.64.42 1.35-.28 2-1.68 2z"/></symbol>
    <symbol id="youtube" viewBox="0 0 64 64"><path fill="#ff0000" d="M27 38.25L40.01 32 27 25.75v12.5z"/><path fill="red" d="M32 0a32 32 0 100 64 32 32 0 000-64zm12 45c-5.52.39-18 .39-23.52 0-6-.4-6.76-3.38-6.76-13 0-9.62.75-12.63 6.77-13 5.52-.39 18-.39 23.52 0 6 .42 6.73 3.39 6.77 13 .04 9.61-.72 12.64-6.78 13z"/></symbol>
</svg>
