<svg xmlns="http://www.w3.org/2000/svg" fill="none" viewBox="0 0 64 64"><defs/><path fill="#38AEEA" d="M42.63 22.82a.5.5 0 00-.13-.12l-.16-.05a.49.49 0 00-.17 0 .55.55 0 00-.15.08L23.56 34.57l2.6 8.6.6-5.49 15.79-14.26a.28.28 0 00.11-.13c.03-.05.05-.1.06-.16v-.16a.53.53 0 00-.09-.15z"/><path fill="#38AEEA" d="M32 0a32 32 0 100 64 32 32 0 000-64zm17.32 18.77c-1.22 5.76-4.49 21.8-5.85 28.14-.06.3-.2.57-.39.8a1.71 1.71 0 01-1.6.61c-.3-.04-.6-.15-.84-.33A885.9 885.9 0 0132 41.67l-4.8 4.54c-.16.16-.37.27-.59.32a1.3 1.3 0 01-1.26-.33 1.43 1.43 0 01-.35-.56c-1.21-3.46-3.42-10.26-3.42-10.26S16.7 33.85 13 32.75a1.3 1.3 0 01-.92-1.19c0-.26.07-.53.22-.75.15-.22.37-.4.62-.49 8.2-3.05 28.24-10.54 34.75-12.95a1.23 1.23 0 011.24.22 1.23 1.23 0 01.38 1.18h.03z"/></svg>