<svg xmlns="http://www.w3.org/2000/svg" fill="none" viewBox="0 0 64 64"><defs/><path fill="#1DA1F2" d="M32 0a32 32 0 100 64 32 32 0 000-64zm15.8 25.46v1c0 10-7.62 21.56-21.56 21.56-4.11 0-8.14-1.18-11.6-3.41a15.21 15.21 0 0011.21-3.14 7.57 7.57 0 01-7.08-5.26c1.13.22 2.3.18 3.42-.13a7.58 7.58 0 01-6.08-7.43v-.09c1.05.59 2.23.9 3.44.94a7.58 7.58 0 01-2.35-10.11 21.52 21.52 0 0015.61 7.92 7.58 7.58 0 0112.91-6.91c1.7-.34 3.33-.96 4.82-1.84a7.63 7.63 0 01-3.34 4.19c1.5-.18 2.97-.58 4.36-1.19a15.48 15.48 0 01-3.76 3.9z"/></svg>