<svg xmlns="http://www.w3.org/2000/svg" fill="none" viewBox="0 0 64 64"><defs/><path fill="#4A76A8" d="M32 0a32 32 0 100 64 32 32 0 000-64zm20.22 47.1h-4.8c-1.82 0-2.38-1.5-5.64-4.76-2.84-2.75-4.1-3.12-4.8-3.12-1 0-1.26.24-1.26 1.63v4.34c0 1.16-.37 1.86-3.45 1.86-5.08 0-10.71-3.08-14.67-8.81-6-8.38-7.6-14.72-7.6-16 0-.7.23-1.35 1.63-1.35h4.84c1.21 0 1.68.51 2.14 1.86 2.38 6.85 6.34 12.86 8 12.86.61 0 .89-.28.89-1.82v-7.06c-.19-3.26-1.91-3.54-1.91-4.71a1.15 1.15 0 011.21-1.12h7.54c1 0 1.4.57 1.4 1.78v9.55c0 1 .43 1.4.75 1.4.61 0 1.12-.38 2.24-1.49a40.72 40.72 0 005.91-9.83A2.13 2.13 0 0146.71 21h4.8c1.44 0 1.76.75 1.44 1.78-.6 2.79-6.48 11.09-6.42 11.09-.51.84-.7 1.21 0 2.14.52.7 2.2 2.14 3.31 3.45 2 2.33 3.64 4.29 4.06 5.64.42 1.35-.28 2-1.68 2z"/></svg>